<?xml version="1.0" encoding="UTF-8" standalone="no"?>
<!DOCTYPE svg PUBLIC "-//W3C//DTD SVG 1.1//EN"
 "http://www.w3.org/Graphics/SVG/1.1/DTD/svg11.dtd">
<!-- Generated by graphviz version 15.1.1 (0)
 -->
<!-- Pages: 1 -->
<svg width="402pt" height="428pt"
 viewBox="0.00 0.00 402.00 428.00" xmlns="http://www.w3.org/2000/svg" xmlns:xlink="http://www.w3.org/1999/xlink">
<g id="graph0" class="graph" transform="scale(1 1) rotate(0) translate(4 424)">
<polygon fill="white" stroke="none" points="-4,4 -4,-424 397.77,-424 397.77,4 -4,4"/>
<!-- 1 -->
<g id="node1" class="node">
<title>1</title>
<ellipse fill="none" stroke="black" cx="186.44" cy="-135.05" rx="42.14" ry="18"/>
<text xml:space="preserve" text-anchor="middle" x="186.44" y="-130" font-family="Times,serif" font-size="14.00">test&#45;skip</text>
</g>
<!-- 7 -->
<g id="node7" class="node">
<title>7</title>
<ellipse fill="none" stroke="black" cx="115.83" cy="-121" rx="27" ry="18"/>
<text xml:space="preserve" text-anchor="middle" x="115.83" y="-115.95" font-family="Times,serif" font-size="14.00">test</text>
</g>
<!-- 1&#45;&gt;7 -->
<g id="edge12" class="edge">
<title>1&#45;&gt;7</title>
<path fill="none" stroke="black" d="M147.83,-127.37C147.71,-127.34 147.59,-127.32 147.47,-127.29"/>
<polygon fill="black" stroke="black" points="154.07,-125.04 143.58,-126.52 152.71,-131.9 154.07,-125.04"/>
</g>
<!-- 2 -->
<g id="node2" class="node">
<title>2</title>
<ellipse fill="none" stroke="black" cx="175.69" cy="-161" rx="40.09" ry="18"/>
<text xml:space="preserve" text-anchor="middle" x="175.69" y="-155.95" font-family="Times,serif" font-size="14.00">test&#45;env</text>
</g>
<!-- 2&#45;&gt;7 -->
<g id="edge10" class="edge">
<title>2&#45;&gt;7</title>
<path fill="none" stroke="black" d="M153.06,-145.88C150.27,-144.01 147.38,-142.08 144.51,-140.17"/>
<polygon fill="black" stroke="black" points="146.49,-137.28 136.23,-134.63 142.6,-143.1 146.49,-137.28"/>
</g>
<!-- 3 -->
<g id="node3" class="node">
<title>3</title>
<ellipse fill="none" stroke="black" cx="155.83" cy="-180.87" rx="51.86" ry="18"/>
<text xml:space="preserve" text-anchor="middle" x="155.83" y="-175.82" font-family="Times,serif" font-size="14.00">test&#45;upload</text>
</g>
<!-- 3&#45;&gt;7 -->
<g id="edge11" class="edge">
<title>3&#45;&gt;7</title>
<path fill="none" stroke="black" d="M143.83,-162.9C140.49,-157.91 136.8,-152.38 133.22,-147.03"/>
<polygon fill="black" stroke="black" points="136.31,-145.35 127.84,-138.98 130.49,-149.24 136.31,-145.35"/>
</g>
<!-- 4 -->
<g id="node4" class="node">
<title>4</title>
<ellipse fill="none" stroke="black" cx="316.83" cy="-402" rx="76.94" ry="18"/>
<text xml:space="preserve" text-anchor="middle" x="316.83" y="-396.95" font-family="Times,serif" font-size="14.00">generate&#45;nix&#45;docs</text>
</g>
<!-- 19 -->
<g id="node19" class="node">
<title>19</title>
<ellipse fill="none" stroke="black" cx="316.83" cy="-330" rx="58" ry="18"/>
<text xml:space="preserve" text-anchor="middle" x="316.83" y="-324.95" font-family="Times,serif" font-size="14.00">publish&#45;docs</text>
</g>
<!-- 4&#45;&gt;19 -->
<g id="edge2" class="edge">
<title>4&#45;&gt;19</title>
<path fill="none" stroke="black" d="M316.83,-383.83C316.83,-376.55 316.83,-367.98 316.83,-359.83"/>
<polygon fill="black" stroke="black" points="320.33,-359.93 316.83,-349.93 313.33,-359.93 320.33,-359.93"/>
</g>
<!-- 5 -->
<g id="node5" class="node">
<title>5</title>
<ellipse fill="none" stroke="black" cx="129.87" cy="-191.62" rx="46.23" ry="18"/>
<text xml:space="preserve" text-anchor="middle" x="129.87" y="-186.57" font-family="Times,serif" font-size="14.00">test&#45;cycle</text>
</g>
<!-- 5&#45;&gt;7 -->
<g id="edge15" class="edge">
<title>5&#45;&gt;7</title>
<path fill="none" stroke="black" d="M126.26,-173.43C124.84,-166.29 123.17,-157.92 121.59,-149.99"/>
<polygon fill="black" stroke="black" points="125.06,-149.49 119.68,-140.36 118.2,-150.85 125.06,-149.49"/>
</g>
<!-- 6 -->
<g id="node6" class="node">
<title>6</title>
<ellipse fill="none" stroke="black" cx="101.78" cy="-191.62" rx="45.72" ry="18"/>
<text xml:space="preserve" text-anchor="middle" x="101.78" y="-186.57" font-family="Times,serif" font-size="14.00">test&#45;abort</text>
</g>
<!-- 6&#45;&gt;7 -->
<g id="edge16" class="edge">
<title>6&#45;&gt;7</title>
<path fill="none" stroke="black" d="M105.4,-173.43C106.82,-166.29 108.48,-157.92 110.06,-149.99"/>
<polygon fill="black" stroke="black" points="113.46,-150.85 111.97,-140.36 106.59,-149.49 113.46,-150.85"/>
</g>
<!-- 8 -->
<g id="node8" class="node">
<title>8</title>
<ellipse fill="none" stroke="black" cx="75.83" cy="-180.87" rx="44.7" ry="18"/>
<text xml:space="preserve" text-anchor="middle" x="75.83" y="-175.82" font-family="Times,serif" font-size="14.00">test&#45;error</text>
</g>
<!-- 8&#45;&gt;7 -->
<g id="edge7" class="edge">
<title>8&#45;&gt;7</title>
<path fill="none" stroke="black" d="M87.61,-163.23C91.01,-158.14 94.79,-152.48 98.45,-147"/>
<polygon fill="black" stroke="black" points="101.32,-149.01 103.97,-138.75 95.5,-145.12 101.32,-149.01"/>
</g>
<!-- 9 -->
<g id="node9" class="node">
<title>9</title>
<ellipse fill="none" stroke="black" cx="55.96" cy="-161" rx="55.45" ry="18"/>
<text xml:space="preserve" text-anchor="middle" x="55.96" y="-155.95" font-family="Times,serif" font-size="14.00">test&#45;timeout</text>
</g>
<!-- 9&#45;&gt;7 -->
<g id="edge17" class="edge">
<title>9&#45;&gt;7</title>
<path fill="none" stroke="black" d="M80.66,-144.5C82.8,-143.07 84.98,-141.61 87.16,-140.16"/>
<polygon fill="black" stroke="black" points="88.86,-143.23 95.23,-134.76 84.97,-137.41 88.86,-143.23"/>
</g>
<!-- 10 -->
<g id="node10" class="node">
<title>10</title>
<ellipse fill="none" stroke="black" cx="316.83" cy="-258" rx="74.38" ry="18"/>
<text xml:space="preserve" text-anchor="middle" x="316.83" y="-252.95" font-family="Times,serif" font-size="14.00">generate&#45;cli&#45;docs</text>
</g>
<!-- 10&#45;&gt;19 -->
<g id="edge1" class="edge">
<title>10&#45;&gt;19</title>
<path fill="none" stroke="black" d="M316.83,-276.17C316.83,-283.45 316.83,-292.02 316.83,-300.17"/>
<polygon fill="black" stroke="black" points="313.33,-300.07 316.83,-310.07 320.33,-300.07 313.33,-300.07"/>
</g>
<!-- 11 -->
<g id="node11" class="node">
<title>11</title>
<ellipse fill="none" stroke="black" cx="163.83" cy="-274" rx="36" ry="18"/>
<text xml:space="preserve" text-anchor="middle" x="163.83" y="-268.95" font-family="Times,serif" font-size="14.00">format</text>
</g>
<!-- 12 -->
<g id="node12" class="node">
<title>12</title>
<ellipse fill="none" stroke="black" cx="45.21" cy="-135.05" rx="45.21" ry="18"/>
<text xml:space="preserve" text-anchor="middle" x="45.21" y="-130" font-family="Times,serif" font-size="14.00">test&#45;flake</text>
</g>
<!-- 12&#45;&gt;7 -->
<g id="edge6" class="edge">
<title>12&#45;&gt;7</title>
<path fill="none" stroke="black" d="M85.88,-126.96C86.03,-126.93 86.18,-126.9 86.34,-126.87"/>
<polygon fill="black" stroke="black" points="78.92,-131.91 88.04,-126.53 77.55,-125.05 78.92,-131.91"/>
</g>
<!-- 13 -->
<g id="node13" class="node">
<title>13</title>
<ellipse fill="none" stroke="black" cx="45.21" cy="-106.95" rx="43.16" ry="18"/>
<text xml:space="preserve" text-anchor="middle" x="45.21" y="-101.9" font-family="Times,serif" font-size="14.00">test&#45;glob</text>
</g>
<!-- 13&#45;&gt;7 -->
<g id="edge13" class="edge">
<title>13&#45;&gt;7</title>
<path fill="none" stroke="black" d="M84.65,-114.8C84.75,-114.82 84.85,-114.84 84.96,-114.86"/>
<polygon fill="black" stroke="black" points="77.55,-116.95 88.04,-115.47 78.92,-110.09 77.55,-116.95"/>
</g>
<!-- 14 -->
<g id="node14" class="node">
<title>14</title>
<ellipse fill="none" stroke="black" cx="55.96" cy="-81" rx="51.35" ry="18"/>
<text xml:space="preserve" text-anchor="middle" x="55.96" y="-75.95" font-family="Times,serif" font-size="14.00">test&#45;matrix</text>
</g>
<!-- 14&#45;&gt;7 -->
<g id="edge3" class="edge">
<title>14&#45;&gt;7</title>
<path fill="none" stroke="black" d="M80.31,-97.27C82.6,-98.8 84.94,-100.37 87.27,-101.92"/>
<polygon fill="black" stroke="black" points="85.12,-104.69 95.38,-107.34 89.01,-98.87 85.12,-104.69"/>
</g>
<!-- 15 -->
<g id="node15" class="node">
<title>15</title>
<ellipse fill="none" stroke="black" cx="75.83" cy="-61.13" rx="65.17" ry="18"/>
<text xml:space="preserve" text-anchor="middle" x="75.83" y="-56.08" font-family="Times,serif" font-size="14.00">test&#45;nix&#45;config</text>
</g>
<!-- 15&#45;&gt;7 -->
<g id="edge8" class="edge">
<title>15&#45;&gt;7</title>
<path fill="none" stroke="black" d="M87.83,-79.1C91.16,-84.09 94.86,-89.62 98.44,-94.97"/>
<polygon fill="black" stroke="black" points="95.35,-96.65 103.81,-103.02 101.17,-92.76 95.35,-96.65"/>
</g>
<!-- 16 -->
<g id="node16" class="node">
<title>16</title>
<ellipse fill="none" stroke="black" cx="101.78" cy="-50.38" rx="55.96" ry="18"/>
<text xml:space="preserve" text-anchor="middle" x="101.78" y="-45.33" font-family="Times,serif" font-size="14.00">test&#45;nixpkgs</text>
</g>
<!-- 16&#45;&gt;7 -->
<g id="edge9" class="edge">
<title>16&#45;&gt;7</title>
<path fill="none" stroke="black" d="M105.4,-68.57C106.82,-75.71 108.48,-84.08 110.06,-92.01"/>
<polygon fill="black" stroke="black" points="106.59,-92.51 111.97,-101.64 113.46,-91.15 106.59,-92.51"/>
</g>
<!-- 17 -->
<g id="node17" class="node">
<title>17</title>
<ellipse fill="none" stroke="black" cx="129.87" cy="-50.38" rx="55.96" ry="18"/>
<text xml:space="preserve" text-anchor="middle" x="129.87" y="-45.33" font-family="Times,serif" font-size="14.00">test&#45;tempdir</text>
</g>
<!-- 17&#45;&gt;7 -->
<g id="edge5" class="edge">
<title>17&#45;&gt;7</title>
<path fill="none" stroke="black" d="M126.26,-68.57C124.84,-75.71 123.17,-84.08 121.59,-92.01"/>
<polygon fill="black" stroke="black" points="118.2,-91.15 119.68,-101.64 125.06,-92.51 118.2,-91.15"/>
</g>
<!-- 18 -->
<g id="node18" class="node">
<title>18</title>
<ellipse fill="none" stroke="black" cx="155.83" cy="-61.13" rx="62.1" ry="18"/>
<text xml:space="preserve" text-anchor="middle" x="155.83" y="-56.08" font-family="Times,serif" font-size="14.00">test&#45;var&#45;script</text>
</g>
<!-- 18&#45;&gt;7 -->
<g id="edge14" class="edge">
<title>18&#45;&gt;7</title>
<path fill="none" stroke="black" d="M143.83,-79.1C140.49,-84.09 136.8,-89.62 133.22,-94.97"/>
<polygon fill="black" stroke="black" points="130.49,-92.76 127.84,-103.02 136.31,-96.65 130.49,-92.76"/>
</g>
<!-- 20 -->
<g id="node20" class="node">
<title>20</title>
<ellipse fill="none" stroke="black" cx="305.83" cy="-18" rx="50.33" ry="18"/>
<text xml:space="preserve" text-anchor="middle" x="305.83" y="-12.95" font-family="Times,serif" font-size="14.00">serve&#45;docs</text>
</g>
<!-- 21 -->
<g id="node21" class="node">
<title>21</title>
<ellipse fill="none" stroke="black" cx="175.69" cy="-81" rx="42.14" ry="18"/>
<text xml:space="preserve" text-anchor="middle" x="175.69" y="-75.95" font-family="Times,serif" font-size="14.00">test&#45;jobs</text>
</g>
<!-- 21&#45;&gt;7 -->
<g id="edge18" class="edge">
<title>21&#45;&gt;7</title>
<path fill="none" stroke="black" d="M152.72,-96.35C150.09,-98.11 147.38,-99.91 144.69,-101.71"/>
<polygon fill="black" stroke="black" points="142.77,-98.79 136.4,-107.25 146.66,-104.61 142.77,-98.79"/>
</g>
<!-- 22 -->
<g id="node22" class="node">
<title>22</title>
<ellipse fill="none" stroke="black" cx="186.44" cy="-106.95" rx="42.14" ry="18"/>
<text xml:space="preserve" text-anchor="middle" x="186.44" y="-101.9" font-family="Times,serif" font-size="14.00">test&#45;vars</text>
</g>
<!-- 22&#45;&gt;7 -->
<g id="edge4" class="edge">
<title>22&#45;&gt;7</title>
<path fill="none" stroke="black" d="M147.83,-114.63C147.71,-114.66 147.59,-114.68 147.47,-114.71"/>
<polygon fill="black" stroke="black" points="152.71,-110.1 143.58,-115.48 154.07,-116.96 152.71,-110.1"/>
</g>
</g>
</svg>
